<svg xmlns="http://www.w3.org/2000/svg" viewBox="0 0 144.03 142.73"><defs><style>.cls-1{fill:#716357;}</style></defs><title>clip</title><g id="_2" data-name="2"><path class="cls-1" d="M118.76,9.72H25.27a4,4,0,0,0-4,4V128.19a4,4,0,0,0,6.05,3.48L70,106.94a4,4,0,0,1,4,0l42.71,24.73a4,4,0,0,0,6.05-3.48V13.75A4,4,0,0,0,118.76,9.72Zm-2.44,111.67c0,1.5-1.06,2.12-2.37,1.36L74.38,99.83a5.27,5.27,0,0,0-4.74,0L30.08,122.75c-1.31.76-2.37.14-2.37-1.36V19.14a2.74,2.74,0,0,1,2.73-2.74h83.14a2.74,2.74,0,0,1,2.74,2.74Z"/></g><g id="レイヤー_4" data-name="レイヤー 4"><path class="cls-1" d="M78.22,54.1l-4.34-11a2,2,0,0,0-3.73,0L65.81,54.1a2,2,0,0,1-1.74,1.27l-11.85.71a2,2,0,0,0-1.15,3.54l9.16,7.55a2,2,0,0,1,.67,2l-3,11.49a2,2,0,0,0,3,2.19l10-6.38a2,2,0,0,1,2.15,0l10,6.38a2,2,0,0,0,3-2.19l-3-11.49a2,2,0,0,1,.66-2L93,59.62a2,2,0,0,0-1.15-3.54L80,55.37A2,2,0,0,1,78.22,54.1Z"/></g></svg>