<?xml version="1.0" encoding="utf-8"?>
<!-- Generator: Adobe Illustrator 24.0.1, SVG Export Plug-In . SVG Version: 6.00 Build 0)  -->
<svg version="1.1" id="レイヤー_1" xmlns="http://www.w3.org/2000/svg" xmlns:xlink="http://www.w3.org/1999/xlink" x="0px"
	 y="0px" viewBox="0 0 48 48" style="enable-background:new 0 0 48 48;" xml:space="preserve">
<style type="text/css">
	.st0{fill:none;}
	.st1{fill:none;stroke:#716357;stroke-width:2;stroke-linecap:round;stroke-linejoin:round;}
</style>
<title>875_ch_h</title>
<rect y="0" class="st0" width="48" height="48"/>
<path class="st1" d="M29.8,16c-1.1-5.7-6.6-10-13.3-10C9,6,3,11.4,3,18c0,3.2,1.4,6.2,3.8,8.3c-0.1,1.6-0.9,3.2-2.2,4.2
	c2.2,0.2,4.4-0.4,6.2-1.6c0.7,0.3,1.5,0.6,2.3,0.7"/>
<path class="st1" d="M29.5,19C37,19,43,24.4,43,31c0,3.2-1.4,6.2-3.8,8.3c0.1,1.6,0.9,3.1,2.2,4.2c-2.2,0.2-4.4-0.3-6.2-1.6
	c-1.8,0.8-3.8,1.2-5.8,1.2C22,43,16,37.6,16,31S22,19,29.5,19z"/>
</svg>
