<svg xmlns="http://www.w3.org/2000/svg" viewBox="0 0 16 16"><defs><style>.cls-1{fill:#998675;}.cls-2,.cls-4{fill:#fff;}.cls-3{fill:none;stroke:#000;stroke-linecap:round;stroke-linejoin:round;stroke-width:0.09px;}.cls-4{opacity:0.3;}.cls-5{fill:#fc8f59;}</style></defs><title>sosial_hack_day</title><g id="レイヤー_5" data-name="レイヤー 5"><path class="cls-1" d="M14.51,10.49c0,2.74-3.1,3.51-6.62,3.51s-6.1-.77-6.1-3.51S4.64,4.21,8.15,4.21,14.51,7.76,14.51,10.49Z"/><path class="cls-1" d="M15.1,6.26a2.86,2.86,0,0,1-3.49,1.18,2.88,2.88,0,0,1-.73-3.62,2.32,2.32,0,0,1,3.19-.64A2.3,2.3,0,0,1,15.1,6.26Z"/><path class="cls-1" d="M.9,6.26A2.86,2.86,0,0,0,4.39,7.44a2.88,2.88,0,0,0,.73-3.62,2.32,2.32,0,0,0-3.19-.64A2.3,2.3,0,0,0,.9,6.26Z"/><path class="cls-2" d="M10,11.63c0,.78-.84,1-1.88,1s-1.88-.19-1.88-1,.84-1.4,1.88-1.4S10,10.86,10,11.63Z"/><circle cx="5.93" cy="9.95" r="0.26"/><circle cx="10.42" cy="9.97" r="0.26"/><path d="M8.49,11.08c0,.07-.17.23-.4.23s-.43-.16-.43-.23.19-.14.42-.14S8.49,11,8.49,11.08Z"/><line class="cls-3" x1="8.09" y1="11.12" x2="8.09" y2="11.71"/><path class="cls-3" d="M7.23,11.77a.41.41,0,0,0,.39.15,1.16,1.16,0,0,0,.4-.16.08.08,0,0,0,.05,0,1.41,1.41,0,0,0,.38.21.41.41,0,0,0,.4-.16"/><path class="cls-4" d="M3.63,6.57c-.26.55-.78,1-1.68.4-.63-.4-1.14-1-1-1.62.24-.9,1.28-.68,2-.35A1.23,1.23,0,0,1,3.63,6.57Z"/><path class="cls-4" d="M12.36,6.57c.26.55.78,1,1.68.4.63-.4,1.14-1,1-1.62-.24-.9-1.28-.68-1.95-.35A1.23,1.23,0,0,0,12.36,6.57Z"/><path class="cls-3" d="M5.39,9.22h1"/><path class="cls-3" d="M10,9.22h1"/><circle class="cls-5" cx="4.55" cy="10.75" r="0.45"/><circle class="cls-5" cx="11.62" cy="10.75" r="0.45"/></g></svg>