<svg width="47" height="18" viewBox="0 0 47 18" fill="none" xmlns="http://www.w3.org/2000/svg">
<path d="M23.494 0C14.84 0 6.70572 1.86105 2.64856 6.01264C0.809842 7.89414 -0.109516 10.1642 0.0104005 12.9047C0.0903446 14.5612 0.589995 16.0337 1.52934 16.9949C2.22885 17.7311 3.20816 18.1402 4.34737 17.9561L11.7622 16.6677C12.8814 16.4836 13.6609 16.136 14.1605 15.6042C14.82 14.9498 15.0199 13.9681 15.0199 12.6797V10.6141C15.0199 10.2869 15.1598 10.0415 15.3597 9.837C15.5595 9.59159 15.8593 9.48933 16.0792 9.42798C17.4382 9.10076 20.1963 8.79399 23.494 8.79399C26.7917 8.79399 29.5298 9.03941 30.9088 9.44843C31.1087 9.50978 31.3885 9.63249 31.6083 9.837C31.7882 10.0415 31.9081 10.2665 31.9281 10.5937L31.9481 12.6797C31.9681 13.9681 32.1679 14.9498 32.8075 15.6042C33.3271 16.136 34.1066 16.4836 35.2258 16.6677L42.5407 17.9357C43.7198 18.1402 44.7191 17.7107 45.4986 16.9336C46.4379 15.9928 46.9576 14.5408 46.9975 12.8842C47.0575 10.1233 46.0182 7.85324 44.2195 6.01264C40.1623 1.86105 32.1479 0 23.494 0Z" fill="white"/>
</svg>
